<svg width="40" height="47" viewBox="0 0 40 47" fill="none" xmlns="http://www.w3.org/2000/svg">
<path d="M28.657 0.294798C26.4312 0.546447 23.2812 2.46862 21.7172 4.52464C20.8148 5.70258 20.2843 6.82697 19.825 8.5189L19.5953 9.36487L19.6062 10.2644C19.6172 10.757 19.6445 11.2174 19.6718 11.2924C19.7429 11.4691 19.8797 11.4959 20.8422 11.5012C21.6406 11.5066 21.6898 11.5012 22.3734 11.3031C24.2 10.7837 25.5398 10.002 26.4914 8.8937C26.7211 8.62063 27.0656 8.25655 27.2461 8.0745C27.8476 7.49625 28.6187 6.21123 29.0453 5.09755C29.4718 3.97851 29.6632 2.93979 29.7179 1.46202L29.7507 0.514322L29.6086 0.375112C29.45 0.219839 29.3625 0.214485 28.657 0.294798Z" fill="#717171"/>
<path d="M28.1484 11.362C27.0656 11.4155 24.1508 12.208 22.0562 13.0111C20.7875 13.4983 20.7875 13.4983 20.5359 13.5412C20.0984 13.6108 19.0265 13.3056 17.1836 12.5774C16.2047 12.1973 15.1984 11.9081 13.7109 11.5762C13.0875 11.4423 12.0539 11.4263 11.6054 11.5494C11.425 11.5976 10.8562 11.71 10.3422 11.7957C9.23747 11.9884 8.61403 12.1758 7.78278 12.5774C5.27263 13.7768 3.56091 15.5008 2.20466 18.1994C1.6031 19.388 1.16013 20.5499 0.832002 21.7867C0.345283 23.6232 0.334346 27.1463 0.810127 29.2826C0.864814 29.545 0.914033 29.8555 0.914033 29.9787C0.914033 30.2357 0.963252 30.4284 1.42263 32.2007C1.84919 33.8391 1.80544 33.7052 2.62028 35.7077C3.76325 38.5187 4.12419 39.1398 6.45935 42.2934C7.41638 43.5838 7.9031 44.1728 8.60856 44.8742C9.34685 45.6131 9.94294 46.0414 10.7851 46.4483C11.7367 46.9034 12.1523 47.0052 13.0273 46.9998C14.1484 46.9998 15.0508 46.7749 16.7679 46.0682C17.8508 45.6238 17.9218 45.6023 19.8906 45.2061C20.4812 45.083 21.0281 45.0937 21.8593 45.2276C22.1437 45.2704 22.5703 45.3346 22.8 45.3668C23.2648 45.431 23.7351 45.5809 24.9492 46.0575C26.4148 46.6357 27.4484 46.8927 28.5312 46.957C30.1062 47.0533 31.6265 46.368 33.2508 44.842C34.9078 43.2733 36.4554 41.1262 38.0195 38.2296C38.4406 37.4478 39.1133 35.8469 39.2281 35.365C39.2773 35.1723 39.3593 34.9314 39.4195 34.835C39.4742 34.7386 39.5234 34.6047 39.5234 34.5458C39.5234 34.3531 39.1242 34.0479 38.4187 33.6999C37.0898 33.0306 35.7828 31.8848 34.9023 30.5944C34.2734 29.6681 33.639 28.2814 33.4804 27.4622C33.2125 26.1129 33.1359 24.6352 33.289 23.6071C33.3273 23.3394 33.464 22.7772 33.5953 22.3489C34.1586 20.491 34.5468 19.7467 35.4273 18.8258C35.6953 18.5527 35.914 18.3011 35.914 18.2797C35.914 18.1887 37.2539 17.091 37.582 16.9143C37.7625 16.8126 37.9922 16.6573 38.0906 16.561C38.3914 16.2718 38.3476 16.1594 37.5929 15.292C36.5812 14.1301 35.307 13.1771 33.8086 12.465C32.8734 12.0206 32.2281 11.8011 31.3258 11.619C30.4015 11.4263 29.0234 11.3138 28.1484 11.362Z" fill="#717171"/>
</svg>
